<svg xmlns="http://www.w3.org/2000/svg" width="117" height="117" viewBox="0 0 117 117">
  <path fill="#FFFFFF" d="M4.5,116.5 L26.3,116.5 L90.6,116.5 L112.4,116.5 C114.7,116.5 116.5,114.7 116.5,112.4 L116.5,4.5 C116.5,2.2 114.7,0.4 112.4,0.4 L4.5,0.4 C2.2,0.4 0.4,2.2 0.4,4.5 L0.4,112.4 C0.4,114.7 2.3,116.5 4.5,116.5 Z M94.7,8.6 L108.3,8.6 L108.3,27.4 L94.7,27.4 L94.7,8.6 Z M94.7,35.6 L108.3,35.6 L108.3,54.4 L104,54.4 L94.6,54.4 L94.6,35.6 L94.7,35.6 Z M94.8,62.6 L104.2,62.6 L108.5,62.6 L108.5,81.4 L94.9,81.4 L94.9,62.6 L94.8,62.6 Z M94.7,89.6 L108.3,89.6 L108.3,108.4 L94.7,108.4 L94.7,89.6 Z M30.4,8.6 L86.5,8.6 L86.5,54.4 L30.4,54.4 L30.4,8.6 Z M30.4,62.6 L86.5,62.6 L86.5,108.4 L30.4,108.4 L30.4,62.6 Z M8.6,8.6 L22.2,8.6 L22.2,27.4 L8.6,27.4 L8.6,8.6 Z M8.6,35.6 L22.2,35.6 L22.2,54.4 L8.6,54.4 L8.6,35.6 Z M8.6,62.6 L22.2,62.6 L22.2,81.4 L8.6,81.4 L8.6,62.6 Z M8.6,89.6 L22.2,89.6 L22.2,108.4 L8.6,108.4 L8.6,89.6 Z"/>
</svg>
