<svg xmlns="http://www.w3.org/2000/svg" width="117" height="117" viewBox="0 0 117 117">
  <path fill="#FFFFFF" d="M94.3,100 C96.6,100 98.4,98.2 98.4,95.9 L98.4,87.5 C98.4,79.3 95.1,71.6 89.2,66 C89.6,63.4 89.9,60.8 89.9,58.3 C89.9,29.8 62.8,2.3 61.6,1.2 C60.8,0.4 59.8,0 58.7,0 C57.6,0 56.6,0.4 55.8,1.2 C54.7,2.4 27.7,29.9 27.7,58.3 C27.7,60.8 27.9,63.3 28.3,65.8 C22.4,71.5 19,79.2 19,87.5 L19,95.9 C19,98.2 20.8,100 23.1,100 C25.4,100 27.2,98.2 27.2,95.9 L27.2,87.5 C27.2,83.2 28.5,79.1 30.7,75.6 C31.9,79.3 33.6,83.2 35.6,87.1 C36.3,88.5 37.7,89.3 39.3,89.3 L54.7,89.3 L54.7,95.9 C54.7,98.2 56.5,100 58.8,100 C61.1,100 62.9,98.2 62.9,95.9 L62.9,89.3 L78.4,89.3 C79.9,89.3 81.3,88.4 82.1,87.1 C84.1,83.3 85.7,79.5 86.9,75.8 C89.1,79.3 90.3,83.3 90.3,87.5 L90.3,95.9 C90.2,98.1 92,100 94.3,100 Z M75.8,81.1 L62.8,81.1 L62.8,74.5 C62.8,72.2 61,70.4 58.7,70.4 C56.4,70.4 54.6,72.2 54.6,74.5 L54.6,81.1 L41.8,81.1 C39.5,76.2 37.8,71.4 36.9,67 C36.9,66.7 36.8,66.4 36.7,66.1 C36.2,63.4 35.9,60.8 35.9,58.3 C35.9,38.5 52,17.9 58.7,10.2 C65.5,17.9 81.7,38.4 81.7,58.3 C81.7,65.2 79.7,72.9 75.8,81.1 Z M44.1,46.7 C44.1,54.8 50.7,61.5 58.9,61.5 C67.1,61.5 73.7,54.9 73.7,46.7 C73.7,38.5 67.1,31.9 58.9,31.9 C50.7,31.9 44.1,38.6 44.1,46.7 Z M58.9,40.2 C62.5,40.2 65.5,43.1 65.5,46.8 C65.5,50.5 62.6,53.4 58.9,53.4 C55.3,53.4 52.3,50.5 52.3,46.8 C52.3,43.1 55.3,40.2 58.9,40.2 Z M40.1,112.5 C40.1,114.8 38.3,116.6 36,116.6 C33.7,116.6 31.9,114.8 31.9,112.5 L31.9,98.8 C31.9,96.5 33.7,94.7 36,94.7 C38.3,94.7 40.1,96.5 40.1,98.8 L40.1,112.5 Z M85.5,112.5 C85.5,114.8 83.6,116.6 81.4,116.6 C79.1,116.6 77.3,114.8 77.3,112.5 L77.3,98.8 C77.3,96.5 79.1,94.7 81.4,94.7 C83.7,94.7 85.5,96.5 85.5,98.8 L85.5,112.5 Z"/>
</svg>
