<svg xmlns="http://www.w3.org/2000/svg" width="117" height="117" viewBox="0 0 117 117">
  <path fill="#FFFFFF" d="M114,47 L80.3,35.7 L62.3,2.6 C61.6,1.2 60.1,0.4 58.6,0.4 C57.1,0.4 55.6,1.2 54.9,2.6 L37,35.6 L3.2,45.8 C1.8,46.2 0.7,47.3 0.4,48.7 C-4.69069228e-15,50.1 0.4,51.6 1.4,52.7 L23.6,77 L14.4,111.3 C14,112.8 14.5,114.5 15.7,115.5 C16.9,116.6 18.6,116.9 20,116.3 L58.6,100.9 L97.2,116.3 C97.7,116.5 98.2,116.6 98.8,116.6 C99.8,116.6 100.8,116.2 101.6,115.5 C102.8,114.4 103.3,112.8 102.9,111.3 L93.7,77 L115.7,53.9 C116.6,52.8 117,51.4 116.7,50 C116.4,48.6 115.3,47.5 114,47 Z M86,72.9 C85,74 84.6,75.5 85,76.9 L92.7,105.3 L60.2,92.5 C59.7,92.3 59.2,92.2 58.6,92.2 C58.1,92.2 57.5,92.3 57,92.5 L24.6,105.4 L32.3,77 C32.7,75.6 32.3,74.1 31.3,73.1 L12,51.9 L41.1,43.2 C42.2,42.9 43.1,42.2 43.6,41.2 L58.6,13.5 L73.6,41.2 C74.1,42.1 74.9,42.8 76,43.2 L105,52.9 L86,72.9 Z"/>
</svg>
